<svg version="1.1" xmlns="http://www.w3.org/2000/svg" xmlns:xlink="http://www.w3.org/1999/xlink" width="256" height="256" viewBox="0,0,255.99132,255.99132"><g fill="#ffffff" fill-rule="nonzero" stroke="none" stroke-width="1" stroke-linecap="round" stroke-linejoin="miter" stroke-miterlimit="10" stroke-dasharray="" stroke-dashoffset="0" font-family="none" font-weight="none" font-size="none" text-anchor="none" style="mix-blend-mode: normal"><g transform="translate(0.1394,0.13951)"><g transform="translate(1.40659,1.40659) scale(2.81,2.81)"><path d="M76.984,0.381c-1.359,-0.785 -3.098,-0.319 -3.883,1.04l-24.879,43.093c-1.911,-0.318 -3.905,0.041 -5.608,1.102l-5.571,3.473l17.73,10.236l0.222,-6.561c0.068,-2.006 -0.618,-3.911 -1.85,-5.408l24.879,-43.092c0.785,-1.36 0.32,-3.098 -1.04,-3.883z"></path><path d="M32.206,52.069l-19.657,12.05c-0.476,0.292 -0.809,0.77 -0.917,1.317c-0.108,0.549 0.018,1.117 0.347,1.568c9.839,13.46 23.233,21.193 39.81,22.983c0.072,0.009 0.144,0.013 0.215,0.013c0.481,0 0.95,-0.174 1.316,-0.494c0.421,-0.368 0.668,-0.895 0.683,-1.453l0.607,-23.048z"></path></g></g></g></svg>