<svg version="1.1" xmlns="http://www.w3.org/2000/svg" xmlns:xlink="http://www.w3.org/1999/xlink" width="256" height="256" viewBox="0,0,255.99132,255.99132"><g fill="#ffffff" fill-rule="nonzero" stroke="none" stroke-width="1" stroke-linecap="none" stroke-linejoin="miter" stroke-miterlimit="10" stroke-dasharray="" stroke-dashoffset="0" font-family="none" font-weight="none" font-size="none" text-anchor="none" style="mix-blend-mode: normal"><g transform="translate(0.13907,0.14047)"><g transform="translate(1.40659,1.40659) scale(2.81,2.81)"><circle cx="70.735" cy="56.775" r="1.955" stroke-linecap="butt"></circle><circle cx="19.765" cy="56.775" r="1.955" stroke-linecap="butt"></circle><path d="M75.479,36.045l-7.987,-1.22l-2.35,-2.574c-5.599,-6.132 -13.571,-9.649 -21.874,-9.649h-6.245c-1.357,0 -2.696,0.107 -4.016,0.296c-0.022,0.004 -0.044,0.006 -0.066,0.01c-7.799,1.133 -14.802,5.468 -19.285,12.106c-7.95,2.899 -13.656,10.344 -13.656,17.938c0,3.254 2.647,5.9 5.9,5.9h3.451c0.969,4.866 5.269,8.545 10.416,8.545c5.147,0 9.447,-3.679 10.416,-8.545h30.139c0.969,4.866 5.27,8.545 10.416,8.545c5.146,0 9.446,-3.679 10.415,-8.545h2.947c3.254,0 5.9,-2.646 5.9,-5.9c0,-8.511 -6.106,-15.621 -14.521,-16.907zM43.269,26.602c7.065,0 13.848,2.949 18.676,8.094h-22.481l-3.267,-8.068c0.275,-0.009 0.55,-0.026 0.826,-0.026zM32.08,27.118l3.068,7.578h-16.176c3.457,-3.883 8.046,-6.527 13.108,-7.578zM19.767,63.397c-3.652,0 -6.623,-2.971 -6.623,-6.622c0,-3.652 2.971,-6.623 6.623,-6.623c3.652,0 6.623,2.971 6.623,6.623c0,3.652 -2.971,6.622 -6.623,6.622zM70.738,63.397c-3.652,0 -6.623,-2.971 -6.623,-6.622c0,-3.652 2.971,-6.623 6.623,-6.623c3.651,0 6.622,2.971 6.622,6.623c0,3.652 -2.97,6.622 -6.622,6.622z" stroke-linecap="round"></path></g></g></g></svg>