<svg version="1.1" xmlns="http://www.w3.org/2000/svg" xmlns:xlink="http://www.w3.org/1999/xlink" width="256" height="256" viewBox="0,0,255.99132,255.99132"><g fill="#ffffff" fill-rule="nonzero" stroke="none" stroke-width="1" stroke-linecap="round" stroke-linejoin="miter" stroke-miterlimit="10" stroke-dasharray="" stroke-dashoffset="0" font-family="none" font-weight="none" font-size="none" text-anchor="none" style="mix-blend-mode: normal"><g transform="translate(0.13871,0.13942)"><g transform="translate(1.40659,1.40659) scale(2.81,2.81)"><path d="M81.005,1.707c0.391,-0.391 0.391,-1.023 0,-1.414c-0.391,-0.391 -1.023,-0.391 -1.414,0l-9.491,9.491c-0.02,0.02 -0.028,0.047 -0.046,0.069l-1.638,-1.638c-2.827,-2.826 -7.426,-2.828 -10.255,0l-3.153,3.153c-0.391,0.391 -0.391,1.023 0,1.414l0.899,0.899l-3.255,3.255l-1.093,-1.093c-2.076,-2.076 -5.455,-2.076 -7.531,0l-33.766,33.767c-1.006,1.005 -1.56,2.343 -1.56,3.766c0,1.422 0.554,2.76 1.56,3.765l13.896,13.896c1.005,1.006 2.343,1.56 3.766,1.56c1.422,0 2.76,-0.554 3.765,-1.56l0.94,-0.939c0.543,-0.544 1.296,-0.82 2.059,-0.762c0.766,0.06 1.465,0.448 1.918,1.067l11.198,15.294c1.815,2.479 4.613,4.037 7.678,4.272c0.269,0.021 0.539,0.031 0.807,0.031c2.778,0 5.45,-1.099 7.431,-3.08c3.693,-3.692 4.135,-9.431 1.049,-13.646l-12.987,-17.738c-1.125,-1.536 -0.964,-3.629 0.383,-4.977l13.289,-13.289c2.076,-2.076 2.076,-5.455 0,-7.531l-1.092,-1.092l3.255,-3.255l0.899,0.899c0.188,0.188 0.441,0.293 0.707,0.293c0.266,0 0.52,-0.105 0.707,-0.293l3.153,-3.153c1.37,-1.37 2.124,-3.19 2.124,-5.127c0,-1.937 -0.754,-3.758 -2.124,-5.127l-1.638,-1.639c0.022,-0.018 0.049,-0.025 0.069,-0.046z"></path></g></g></g></svg>