<svg version="1.1" xmlns="http://www.w3.org/2000/svg" xmlns:xlink="http://www.w3.org/1999/xlink" width="256" height="256" viewBox="0,0,255.99132,255.99132"><g fill="#ffffff" fill-rule="nonzero" stroke="none" stroke-width="1" stroke-linecap="round" stroke-linejoin="miter" stroke-miterlimit="10" stroke-dasharray="" stroke-dashoffset="0" font-family="none" font-weight="none" font-size="none" text-anchor="none" style="mix-blend-mode: normal"><g transform="translate(0.13959,0.14038)"><g transform="translate(1.40659,1.40659) scale(2.81,2.81)"><path d="M71.79,34.614c-0.334,-0.497 -0.926,-0.745 -1.513,-0.63l-18.311,3.528l3.718,-35.877c0.071,-0.682 -0.332,-1.32 -0.979,-1.55c-0.648,-0.229 -1.362,0.011 -1.738,0.585l-34.765,53.076c-0.328,0.5 -0.325,1.144 0.008,1.639c0.33,0.493 0.922,0.742 1.513,0.632l18.312,-3.529l-3.718,35.876c-0.071,0.684 0.332,1.322 0.979,1.551c0.159,0.056 0.326,0.085 0.496,0.085c0.502,0 0.965,-0.251 1.241,-0.67l34.765,-53.076c0.328,-0.5 0.324,-1.144 -0.008,-1.64z"></path></g></g></g></svg>