<svg version="1.1" xmlns="http://www.w3.org/2000/svg" xmlns:xlink="http://www.w3.org/1999/xlink" width="256" height="256" viewBox="0,0,255.99132,255.99132"><g fill="#ffffff" fill-rule="nonzero" stroke="none" stroke-width="1" stroke-linecap="round" stroke-linejoin="miter" stroke-miterlimit="10" stroke-dasharray="" stroke-dashoffset="0" font-family="none" font-weight="none" font-size="none" text-anchor="none" style="mix-blend-mode: normal"><g transform="translate(0.14047,0.13942)"><g transform="translate(1.40659,1.40659) scale(2.81,2.81)"><path d="M88.737,55.053l-2.993,-2.993l1.62,-1.62c1.272,-1.272 1.272,-3.341 0,-4.613l-44.873,-44.874c-1.272,-1.271 -3.341,-1.271 -4.614,0l-4.422,4.422l-1.194,-1.194c-1.019,-1.019 -2.373,-1.58 -3.814,-1.58c-1.441,0 -2.795,0.561 -3.815,1.58l-5.228,5.228c-1.802,1.801 -2.092,4.653 -0.69,6.78l20.178,30.642c0.882,1.339 0.699,3.133 -0.435,4.267l-1.981,1.981l-4.46,-4.46c-0.391,-0.391 -1.023,-0.391 -1.414,0l-3.425,3.425c-0.177,0.177 -0.281,0.413 -0.292,0.662c-0.119,2.646 -1.438,5.414 -3.619,7.596c-2.181,2.181 -4.949,3.499 -7.595,3.618c-0.25,0.012 -0.486,0.115 -0.662,0.292l-11.606,11.606c-1.569,1.568 -2.434,3.655 -2.434,5.874c0,2.219 0.864,4.306 2.434,5.874c1.569,1.57 3.655,2.434 5.874,2.434c2.219,0 4.305,-0.864 5.874,-2.434l11.605,-11.605c0.177,-0.177 0.281,-0.413 0.292,-0.662c0.119,-2.647 1.438,-5.414 3.619,-7.595c2.181,-2.181 4.949,-3.5 7.596,-3.619c0.25,-0.012 0.486,-0.115 0.662,-0.292l3.425,-3.425c0.391,-0.391 0.391,-1.023 0,-1.414l-4.46,-4.46l1.981,-1.981c1.801,-1.801 2.092,-4.653 0.691,-6.78l-20.178,-30.643c-0.881,-1.338 -0.699,-3.132 0.435,-4.266l5.228,-5.228c1.282,-1.282 3.518,-1.282 4.8,0l1.194,1.194l-5.071,5.071c-1.272,1.272 -1.271,3.342 0,4.613l44.873,44.873c0.636,0.636 1.472,0.954 2.307,0.954c0.835,0 1.671,-0.318 2.307,-0.954l1.62,-1.62l2.992,2.993c0.188,0.188 0.441,0.293 0.707,0.293c0.266,0 0.52,-0.105 0.707,-0.293l6.254,-6.253c0.188,-0.188 0.293,-0.441 0.293,-0.707c0,-0.266 -0.105,-0.52 -0.293,-0.707z"></path></g></g></g></svg>