<svg version="1.1" xmlns="http://www.w3.org/2000/svg" xmlns:xlink="http://www.w3.org/1999/xlink" width="256" height="256" viewBox="0,0,255.99132,255.99132"><g fill="#ffffff" fill-rule="nonzero" stroke="none" stroke-width="1" stroke-linecap="round" stroke-linejoin="miter" stroke-miterlimit="10" stroke-dasharray="" stroke-dashoffset="0" font-family="none" font-weight="none" font-size="none" text-anchor="none" style="mix-blend-mode: normal"><g transform="translate(0.13766,0.14416)"><g transform="translate(1.40659,1.40659) scale(2.81,2.81)"><path d="M75.197,12.705c-10.333,-1.879 -19.341,-5.76 -26.775,-11.534c-2.016,-1.563 -4.83,-1.564 -6.843,0c-7.435,5.773 -16.443,9.654 -26.775,11.534c-2.667,0.485 -4.603,2.811 -4.603,5.529v31.788c0,17.53 12.655,33.061 32.241,39.566c0.825,0.273 1.691,0.41 2.559,0.41c0.867,0 1.734,-0.137 2.561,-0.41c19.584,-6.506 32.238,-22.036 32.238,-39.566v-31.788c-0.001,-2.718 -1.937,-5.044 -4.603,-5.529zM22.093,45.767c0,1.104 -0.896,2 -2,2c-1.104,0 -2,-0.896 -2,-2v-5.22c0,-1.104 0.896,-2 2,-2c1.104,0 2,0.896 2,2zM37.117,19.346c-4.332,2.191 -9.183,3.784 -14.418,4.736c-0.351,0.064 -0.605,0.374 -0.605,0.736v8.505c0,1.104 -0.896,2 -2,2c-1.104,0 -2,-0.896 -2,-2v-8.505c0,-2.297 1.636,-4.262 3.889,-4.672c4.857,-0.883 9.342,-2.354 13.33,-4.37c0.984,-0.499 2.188,-0.104 2.687,0.882c0.498,0.986 0.103,2.189 -0.883,2.688zM52.947,77.026c-1.856,0.94 -3.826,1.759 -5.852,2.433c-0.21,0.069 -0.422,0.103 -0.631,0.103c-0.838,0 -1.619,-0.531 -1.898,-1.37c-0.348,-1.049 0.219,-2.181 1.268,-2.529c1.839,-0.61 3.625,-1.353 5.305,-2.204c10.5,-5.313 16.768,-14.472 16.768,-24.501c0,-1.104 0.896,-2 2,-2c1.104,0 2,0.896 2,2c0,11.567 -7.088,22.062 -18.96,28.068zM71.907,40.364c0,1.104 -0.896,2 -2,2c-1.104,0 -2,-0.896 -2,-2v-13.313c0,-1.104 0.896,-2 2,-2c1.104,0 2,0.896 2,2z"></path></g></g></g></svg>