<svg version="1.1" xmlns="http://www.w3.org/2000/svg" xmlns:xlink="http://www.w3.org/1999/xlink" width="256" height="256" viewBox="0,0,255.99132,255.99132"><g fill="#ffffff" fill-rule="nonzero" stroke="none" stroke-width="1" stroke-linecap="round" stroke-linejoin="miter" stroke-miterlimit="10" stroke-dasharray="" stroke-dashoffset="0" font-family="none" font-weight="none" font-size="none" text-anchor="none" style="mix-blend-mode: normal"><g transform="translate(0.14047,0.11799)"><g transform="translate(1.40659,1.40659) scale(2.81,2.81)"><path d="M47.045,1.824l-1.289,-1.487c-0.38,-0.44 -1.133,-0.44 -1.513,0l-1.29,1.488c-11.815,13.62 -29.669,34.203 -29.669,56.467c0,17.488 14.227,31.716 31.715,31.716c17.488,0 31.716,-14.227 31.716,-31.716c0.001,-22.264 -17.855,-42.848 -29.67,-56.468zM45.528,75.046c-10.072,0 -18.266,-8.194 -18.266,-18.266c0,-0.553 0.448,-1 1,-1c0.552,0 1,0.447 1,1c0,8.968 7.297,16.266 16.265,16.266c0.553,0 1,0.447 1,1c0,0.553 -0.446,1 -0.999,1z"></path></g></g></g></svg>