<svg version="1.1" xmlns="http://www.w3.org/2000/svg" xmlns:xlink="http://www.w3.org/1999/xlink" width="256" height="256" viewBox="0,0,255.99132,255.99132"><g fill="#ffffff" fill-rule="nonzero" stroke="none" stroke-width="1" stroke-linecap="round" stroke-linejoin="miter" stroke-miterlimit="10" stroke-dasharray="" stroke-dashoffset="0" font-family="none" font-weight="none" font-size="none" text-anchor="none" style="mix-blend-mode: normal"><g transform="translate(0.13935,0.13651)"><g transform="translate(1.40659,1.40659) scale(2.81,2.81)"><path d="M89.161,11.093c-0.109,-0.329 -0.381,-0.578 -0.719,-0.658c-0.334,-0.078 -0.692,0.02 -0.937,0.266l-7.189,7.189c-1.096,1.096 -2.553,1.7 -4.104,1.7c-1.55,0 -3.007,-0.603 -4.104,-1.699c-2.262,-2.263 -2.262,-5.944 0,-8.207l7.189,-7.189c0.245,-0.245 0.346,-0.6 0.266,-0.937c-0.079,-0.337 -0.329,-0.609 -0.658,-0.719c-5.863,-1.945 -12.216,-0.449 -16.57,3.906c-4.463,4.462 -5.916,11.049 -3.792,16.948l-36.85,36.851c-5.897,-2.124 -12.485,-0.67 -16.948,3.792c-4.355,4.355 -5.852,10.704 -3.907,16.57c0.109,0.329 0.381,0.579 0.719,0.658c0.335,0.081 0.692,-0.021 0.937,-0.266l7.189,-7.189c2.261,-2.263 5.943,-2.263 8.207,0c1.096,1.096 1.699,2.553 1.699,4.104c0,1.551 -0.603,3.007 -1.7,4.104l-7.189,7.189c-0.245,0.245 -0.346,0.599 -0.266,0.937c0.08,0.338 0.329,0.609 0.658,0.719c1.7,0.563 3.44,0.839 5.16,0.839c4.218,0 8.317,-1.652 11.41,-4.745c4.463,-4.463 5.917,-11.049 3.793,-16.948l36.851,-36.851c5.9,2.123 12.485,0.671 16.948,-3.793c4.357,-4.355 5.853,-10.705 3.907,-16.571z"></path><path d="M72.088,57.275c-0.177,-0.177 -0.413,-0.28 -0.662,-0.292c-3.462,-0.155 -7.078,-1.876 -9.923,-4.721c-1.742,-1.743 -3.065,-3.782 -3.863,-5.897l-11.123,11.123c2.115,0.799 4.154,2.121 5.897,3.863c2.845,2.846 4.565,6.462 4.721,9.923c0.012,0.249 0.115,0.485 0.292,0.662l14.876,14.876c2.021,2.021 4.676,3.031 7.33,3.031c2.655,0 5.311,-1.01 7.331,-3.031c4.041,-4.042 4.041,-10.619 0,-14.661z"></path><path d="M5.351,14.171c0.123,0.219 0.324,0.384 0.563,0.462l5.82,1.89l23.869,23.869l4.638,-4.638l-23.869,-23.869l-1.891,-5.82c-0.078,-0.239 -0.243,-0.44 -0.462,-0.563l-9.305,-5.223c-0.391,-0.219 -0.88,-0.151 -1.196,0.165l-3.225,3.224c-0.317,0.317 -0.384,0.806 -0.165,1.196z"></path></g></g></g></svg>